<svg width="50" height="50" viewBox="0 0 50 50" fill="none" xmlns="http://www.w3.org/2000/svg">
<path d="M16.6667 6.25C15.5616 6.25 14.5018 6.68899 13.7204 7.47039C12.939 8.25179 12.5 9.3116 12.5 10.4167V18.75C12.5 19.8551 12.061 20.9149 11.2796 21.6963C10.4982 22.4777 9.4384 22.9167 8.33333 22.9167H6.25V27.0833H8.33333C9.4384 27.0833 10.4982 27.5223 11.2796 28.3037C12.061 29.0851 12.5 30.1449 12.5 31.25V39.5833C12.5 40.6884 12.939 41.7482 13.7204 42.5296C14.5018 43.311 15.5616 43.75 16.6667 43.75H20.8333V39.5833H16.6667V29.1667C16.6667 28.0616 16.2277 27.0018 15.4463 26.2204C14.6649 25.439 13.6051 25 12.5 25C13.6051 25 14.6649 24.561 15.4463 23.7796C16.2277 22.9982 16.6667 21.9384 16.6667 20.8333V10.4167H20.8333V6.25M33.3333 6.25C34.4384 6.25 35.4982 6.68899 36.2796 7.47039C37.061 8.25179 37.5 9.3116 37.5 10.4167V18.75C37.5 19.8551 37.939 20.9149 38.7204 21.6963C39.5018 22.4777 40.5616 22.9167 41.6667 22.9167H43.75V27.0833H41.6667C40.5616 27.0833 39.5018 27.5223 38.7204 28.3037C37.939 29.0851 37.5 30.1449 37.5 31.25V39.5833C37.5 40.6884 37.061 41.7482 36.2796 42.5296C35.4982 43.311 34.4384 43.75 33.3333 43.75H29.1667V39.5833H33.3333V29.1667C33.3333 28.0616 33.7723 27.0018 34.5537 26.2204C35.3351 25.439 36.3949 25 37.5 25C36.3949 25 35.3351 24.561 34.5537 23.7796C33.7723 22.9982 33.3333 21.9384 33.3333 20.8333V10.4167H29.1667V6.25H33.3333Z" fill="#FFDA5F"/>
</svg>
