<svg width="36" height="20" viewBox="0 0 36 20" fill="none" xmlns="http://www.w3.org/2000/svg">
<path d="M33 0H13.5C11.85 0 10.5 1.35 10.5 3V16.5C10.5 18.165 11.85 19.5 13.5 19.5H33C34.665 19.5 36 18.165 36 16.5V3C36 1.35 34.665 0 33 0ZM33 16.5H13.5V5.505L23.25 10.5L33 5.505V16.5ZM23.25 7.965L13.5 3H33L23.25 7.965ZM7.5 16.5C7.5 16.755 7.545 16.995 7.575 17.25H1.5C0.672 17.25 0 16.575 0 15.75C0 14.925 0.672 14.25 1.5 14.25H7.5V16.5ZM4.5 2.25H7.575C7.545 2.505 7.5 2.745 7.5 3V5.25H4.5C3.675 5.25 3 4.575 3 3.75C3 2.925 3.675 2.25 4.5 2.25ZM1.5 9.75C1.5 8.925 2.175 8.25 3 8.25H7.5V11.25H3C2.175 11.25 1.5 10.575 1.5 9.75Z" fill="white"/>
</svg>
