<svg width="24" height="25" viewBox="0 0 24 25" fill="none" xmlns="http://www.w3.org/2000/svg">
<path d="M7.875 0V4.92188H5.90625V2.95312H0V20.6719H1.96875V21.6562C1.96875 22.4561 2.25586 23.1431 2.83008 23.7173C3.4248 24.312 4.12207 24.6094 4.92188 24.6094C5.72168 24.6094 6.40869 24.312 6.98291 23.7173C7.57764 23.1431 7.875 22.4561 7.875 21.6562V20.6719H23.625V4.92188H19.6875V0H7.875ZM9.84375 1.96875H17.7188V6.89062H9.84375V1.96875ZM1.96875 4.92188H3.9375V18.7031H1.96875V4.92188ZM5.90625 6.89062H7.875V8.85938H19.6875V6.89062H21.6562V18.7031H5.90625V6.89062ZM8.85938 10.8281V12.7969H10.8281V10.8281H8.85938ZM12.7969 10.8281V12.7969H14.7656V10.8281H12.7969ZM16.7344 10.8281V12.7969H18.7031V10.8281H16.7344ZM8.85938 14.7656V16.7344H10.8281V14.7656H8.85938ZM12.7969 14.7656V16.7344H14.7656V14.7656H12.7969ZM16.7344 14.7656V16.7344H18.7031V14.7656H16.7344ZM3.9375 20.6719H5.90625V21.6562C5.90625 21.9229 5.80371 22.1587 5.59863 22.3638C5.41406 22.5483 5.18848 22.6406 4.92188 22.6406C4.65527 22.6406 4.41943 22.5483 4.21436 22.3638C4.02979 22.1587 3.9375 21.9229 3.9375 21.6562V20.6719Z" fill="white"/>
</svg>
