<svg width="34" height="34" viewBox="0 0 34 34" fill="none" xmlns="http://www.w3.org/2000/svg">
<path d="M17 2.83333C15.1396 2.83333 13.2975 3.19976 11.5787 3.91171C9.85991 4.62365 8.29819 5.66716 6.9827 6.98265C4.32593 9.63942 2.83337 13.2428 2.83337 17C2.83337 23.2617 6.89921 28.5742 12.5234 30.4583C13.2317 30.5717 13.4584 30.1325 13.4584 29.75C13.4584 29.4242 13.4584 28.5317 13.4584 27.3558C9.53421 28.2058 8.69837 25.4575 8.69837 25.4575C8.04671 23.8142 7.12587 23.375 7.12587 23.375C5.83671 22.4967 7.22504 22.525 7.22504 22.525C8.64171 22.6242 9.39254 23.9842 9.39254 23.9842C10.625 26.1375 12.7075 25.5 13.515 25.16C13.6425 24.2392 14.0109 23.6158 14.4075 23.2617C11.2625 22.9075 7.96171 21.6892 7.96171 16.2917C7.96171 14.7192 8.50004 13.4583 9.42088 12.4525C9.27921 12.0983 8.78337 10.625 9.56254 8.7125C9.56254 8.7125 10.7525 8.33 13.4584 10.1575C14.5775 9.84583 15.7959 9.69 17 9.69C18.2042 9.69 19.4225 9.84583 20.5417 10.1575C23.2475 8.33 24.4375 8.7125 24.4375 8.7125C25.2167 10.625 24.7209 12.0983 24.5792 12.4525C25.5 13.4583 26.0384 14.7192 26.0384 16.2917C26.0384 21.7033 22.7234 22.8933 19.5642 23.2475C20.0742 23.6867 20.5417 24.5508 20.5417 25.8683C20.5417 27.7667 20.5417 29.2967 20.5417 29.75C20.5417 30.1325 20.7684 30.5858 21.4909 30.4583C27.115 28.56 31.1667 23.2617 31.1667 17C31.1667 15.1396 30.8003 13.2974 30.0883 11.5786C29.3764 9.85987 28.3329 8.29815 27.0174 6.98265C25.7019 5.66716 24.1402 4.62365 22.4214 3.91171C20.7026 3.19976 18.8604 2.83333 17 2.83333Z" fill="white"/>
</svg>
