<svg width="71" height="80" viewBox="0 0 71 80" fill="none" xmlns="http://www.w3.org/2000/svg">
<path d="M67.4435 17.5829L38.5048 0.779625C36.6798 -0.259875 34.3035 -0.259875 32.464 0.779625L3.21628 17.5829C1.33284 18.6664 0 20.7027 0 22.8808V56.4428C0 58.6209 1.36763 60.6579 3.25106 61.7472L10.9784 66.1362C14.6718 67.9554 15.9771 67.9554 17.6577 67.9554C23.1263 67.9554 26.25 64.6485 26.25 58.8807V25.7467C26.25 25.2788 26.0065 24.5825 25.5472 24.5825H21.8571C21.3898 24.5825 20.3438 25.2788 20.3438 25.746V58.8801C20.3438 61.4368 18.0311 63.9811 13.7091 61.8201L5.72447 57.2178C5.44622 57.0669 5.25 56.763 5.25 56.4428V22.8808C5.25 22.5645 5.61422 22.2469 5.89444 22.0848L35.0477 5.31038C35.32 5.15616 35.7203 5.15616 35.992 5.31038L64.7896 22.0808C65.0652 22.2469 64.9681 22.5547 64.9681 22.8808V56.4428C64.9681 56.763 65.0882 57.0747 64.8158 57.229L35.8844 74.0132C35.6363 74.1622 35.3286 74.1622 35.0569 74.0132L27.6367 69.5842C27.4129 69.4542 27.1471 69.4076 26.9325 69.5277C24.8679 70.6978 24.4873 70.8534 22.5507 71.5247C22.0743 71.6907 21.3714 71.9788 22.8198 72.7906L32.531 78.5354C33.4581 79.0709 34.5099 79.3529 35.5806 79.3531C36.6581 79.3531 37.7134 79.0735 38.6433 78.5354L67.4428 61.7472C69.3262 60.65 70.2188 58.6209 70.2188 56.4428V22.8808C70.2188 20.7027 69.3263 18.6716 67.4435 17.5829ZM44.5659 51.1245C36.8708 51.1245 35.1757 49.0015 34.6106 45.1749C34.545 44.7628 34.1952 44.27 33.7759 44.27H30.0149C29.5496 44.27 29.1756 44.8344 29.1756 45.2977C29.1756 50.1972 31.8393 56.1337 44.5666 56.1337C53.7797 56.1337 59.0618 52.5538 59.0618 46.2184C59.0618 39.9368 54.8179 38.2883 45.883 37.1057C36.8517 35.912 35.9343 35.3089 35.9343 33.1931C35.9343 31.4488 36.7113 29.1224 43.3985 29.1224C49.3736 29.1224 51.576 30.4047 52.4823 34.4321C52.5597 34.8108 52.9056 35.0825 53.296 35.0825H57.0721C57.3044 35.0825 57.5262 34.9886 57.689 34.8226C57.8465 34.6441 57.9298 34.4203 57.9088 34.1801C57.3241 27.2449 52.7166 24.0128 43.3978 24.0128C35.1087 24.0128 30.1639 27.5133 30.1639 33.3808C30.1639 39.7451 35.0838 41.5039 43.0408 42.2907C52.5597 43.2239 53.3 44.6152 53.3 46.4874C53.3 49.7392 50.6894 51.1245 44.5659 51.1245Z" fill="#83CD29"/>
</svg>
