<svg width="128" height="128" viewBox="0 0 128 128" fill="none" xmlns="http://www.w3.org/2000/svg">
<g clip-path="url(#clip0_1_60)">
<path d="M122 72.2999H116.7V69.5999H127.2V63.6999H117.2C114.6 63.6999 111.1 65.7999 111.1 69.7999V71.7999C111.1 75.7999 114.5 77.7999 117.2 77.7999H122.2V80.5999L111.4 80.6999V86.5999H122C124.2 86.5999 127.9 84.9999 128 80.5999V78.2999C128 74.4999 124.9 72.2999 122 72.2999ZM60.4 71.3999C60.4 64.0999 53.5 63.3999 53.5 63.3999H41.2V86.4999H47.4V80.9999L52.8 86.5999H62L54.7 79.1999C54.7 79.1999 60.4 78.6999 60.4 71.3999ZM52.3 74.4999H47.3V69.1999H52.3C52.3 69.1999 53.7 69.6999 53.7 71.7999C53.7 73.9999 52.3 74.4999 52.3 74.4999ZM75.7 63.5999H69.4C64.9 63.5999 63.4 67.6999 63.4 69.5999V86.4999H69.7V82.4999H75.6V86.4999H81.7V69.5999C81.7 64.6999 77.3 63.5999 75.7 63.5999ZM75.6 75.8999H69.6V70.2999C69.6 70.2999 69.6 68.9999 71.6 68.9999H73.8C75.5 68.9999 75.6 70.2999 75.6 70.2999V75.8999ZM84.6 63.5999H91.2V86.4999H84.6V63.5999ZM100.4 63.5999H93.9V86.4999H109.2V80.5999H100.4V63.5999Z" fill="#CC0000"/>
<path d="M72.2 60.6999C72.8 60.1999 73.3 59.7999 73.3 59.7999C73.3 59.7999 56.5 42.9999 37.7 44.8999C28.3 45.6999 16.7 54.2999 9.90001 65.5999C3.10001 76.8999 2.20001 86.4999 2.20001 86.4999H27.8C27.8 86.4999 22.9 64.1999 39.1 55.1999C42.6 53.4999 53.9 47.0999 72.2 60.6999ZM55.5 44.4999C55.2 44.2999 54.4 43.8999 52.4 43.3999L52.3 45.4999C53.4 45.8999 54.4 46.2999 55.4 46.6999L55.5 44.4999Z" fill="#CC0000"/>
<path d="M55.5 55.9L55.6 53.9C54.5 53.7 53.4 53.6 52.4 53.5L52.3 55.5C53.4 55.5 54.4 55.7 55.5 55.9ZM40.4 43.5H40.7L40.1 41.5C39.1 41.5 38.1 41.6 37 41.7L37.6 43.6C38.5 43.5 39.4 43.5 40.4 43.5ZM42.6 57.6C43.5 57.1 44.5 56.8 45.4 56.5L44.7 54.4C43.7 54.6 42.7 55 41.9 55.4L42.6 57.6ZM27.2 46.9L25.7 44.7C25 45 24.1 45.5 23.3 46L24.8 48.3C25.6 47.8 26.4 47.3 27.2 46.9ZM33.9 61.4L35.5 63.7C36.1 62.9 36.7 62.1 37.4 61.4L35.9 59.2C35.1 59.9 34.5 60.7 33.9 61.4ZM30.2 68.3C29.7 69.5 29.4 70.7 29.2 71.8L31.8 73.9C31.9 72.6 32.2 71.4 32.5 70.1L30.2 68.3ZM15 56.5L12.7 54.5C11.9 55.3 11 56.1 10.3 56.9L12.8 59C13.5 58.1 14.2 57.3 15 56.5ZM5.20002 70.9L1.50002 69.5C0.900024 70.9 0.200024 72.5 -0.0999756 73.4L3.60002 74.8C4.00002 73.7 4.70002 72.1 5.20002 70.9ZM28.7 80C28.8 81.7 28.9 83.1 29.1 84.1L33 85.5C32.7 84.2 32.4 82.8 32.2 81.3L28.7 80Z" fill="#CC0000"/>
</g>
<defs>
<clipPath id="clip0_1_60">
<rect width="128" height="128" fill="white"/>
</clipPath>
</defs>
</svg>
