<svg width="128" height="128" viewBox="0 0 128 128" fill="none" xmlns="http://www.w3.org/2000/svg">
<g clip-path="url(#clip0_1_37)">
<path d="M88.6901 88.11C79.6901 106.51 63.9301 118.89 43.0801 122.96C39.8832 123.743 36.6014 124.126 33.3101 124.1C21.3101 124.1 10.3101 119.1 4.97006 110.91C-2.19994 100 -4.63994 76.87 19.0001 59.76C19.4801 62.37 20.4601 65.95 21.1101 68.07C16.4694 71.5177 12.6708 75.9727 10.0001 81.1C5.60006 89.74 6.09006 98.37 11.3001 106.35C14.9001 111.73 20.6001 115 27.9301 116C37.0854 117.159 46.3734 115.41 54.4801 111C67.1901 104.32 75.6601 96.34 81.2001 85.43C79.6335 83.8111 78.7063 81.6797 78.5901 79.43C78.5063 77.0159 79.3838 74.6671 81.0298 72.8992C82.6759 71.1313 84.9561 70.0886 87.3701 70H87.7101C90.058 69.9882 92.3207 70.8795 94.0298 72.4895C95.7389 74.0994 96.7637 76.3048 96.8922 78.6493C97.0207 80.9937 96.2429 83.2979 94.7199 85.0849C93.197 86.872 91.0452 88.0051 88.7101 88.25L88.6901 88.11ZM117.36 67.91C129.57 81.75 129.9 98.04 125.18 107.49C120.78 116.12 109.18 124.76 93.5801 124.76C86.2977 124.611 79.1337 122.889 72.5801 119.71C74.8701 118.08 78.1201 115.47 79.9101 113.84C84.9639 116.029 90.4027 117.192 95.9101 117.26C106.01 117.26 113.66 112.54 118.22 103.91C121.15 98.21 121.32 91.53 118.55 84.69C115.151 76.0838 109.103 68.7818 101.28 63.84C91.0167 56.9214 78.9175 53.2332 66.5401 53.25H63.6101C62.9268 54.8283 61.8153 56.1837 60.4015 57.1628C58.9876 58.1419 57.3278 58.7056 55.6101 58.79H55.3001C52.9242 58.7608 50.6534 57.8065 48.9698 56.1299C47.2862 54.4533 46.3226 52.1864 46.2835 49.8107C46.2445 47.435 47.1331 45.1377 48.7606 43.4067C50.3882 41.6756 52.6265 40.6473 55.0001 40.54H55.3301C56.9841 40.5412 58.6059 40.9983 60.0171 41.8609C61.4284 42.7236 62.5747 43.9585 63.3301 45.43H65.9401C86.7401 45.43 105 53.41 117.36 67.91ZM34.6101 90.91C34.4388 89.2494 34.8411 87.5802 35.7501 86.18C26.6301 70.38 21.7501 50.35 29.2401 29.5C34.6101 13.83 48.1301 3.23999 62.7901 3.23999C78.4301 3.23999 94.7201 16.93 96.6701 43.31C94.2301 42.5 90.6701 41.31 88.5301 40.87C88.0001 32.24 80.7101 10.74 63.4401 11.06C57.2501 11.23 48.1301 14.16 43.4401 20.18C37.6387 27.3662 34.2638 36.206 33.8001 45.43C32.7008 58.0777 35.6682 70.7461 42.2701 81.59C42.6345 81.4568 43.023 81.4023 43.4101 81.43H43.7301C46.1488 81.3862 48.4859 82.3051 50.2272 83.9845C51.9685 85.6639 52.9713 87.9662 53.0151 90.385C53.0588 92.8038 52.1399 95.1409 50.4605 96.8821C48.7812 98.6234 46.4788 99.6262 44.0601 99.67H43.7301C41.3704 99.6616 39.1049 98.7429 37.4059 97.1054C35.7069 95.4678 34.7054 93.2378 34.6101 90.88V90.91Z" fill="#764ABC"/>
</g>
<defs>
<clipPath id="clip0_1_37">
<rect width="128" height="128" fill="white"/>
</clipPath>
</defs>
</svg>
