<svg width="128" height="128" viewBox="0 0 128 128" fill="none" xmlns="http://www.w3.org/2000/svg">
<path d="M30.217 109.422V117.969H25.493V95.692H31.984C35.01 95.692 37.25 96.243 38.703 97.345C40.156 98.448 40.882 100.121 40.882 102.365C40.882 103.676 40.521 104.842 39.799 105.862C39.078 106.883 38.057 107.684 36.736 108.263L43.288 117.968H38.046L32.729 109.421H30.217V109.422ZM30.217 105.582H31.741C33.233 105.582 34.336 105.332 35.047 104.835C35.757 104.337 36.113 103.555 36.113 102.489C36.113 101.432 35.75 100.681 35.024 100.234C34.298 99.787 33.173 99.563 31.649 99.563H30.217V105.582ZM57.795 117.969L57.17 115.79H56.926C56.428 116.583 55.721 117.194 54.808 117.626C53.893 118.058 52.851 118.273 51.684 118.273C49.682 118.273 48.175 117.738 47.158 116.666C46.142 115.594 45.634 114.053 45.634 112.042V100.934H50.282V110.884C50.282 112.113 50.5 113.035 50.938 113.65C51.374 114.265 52.069 114.571 53.024 114.571C54.325 114.571 55.264 114.136 55.843 113.269C56.422 112.4 56.712 110.961 56.712 108.95V100.935H61.359V117.97H57.795V117.969ZM75.713 100.613C77.724 100.613 79.299 101.399 80.438 102.968C81.575 104.537 82.144 106.688 82.144 109.421C82.144 112.234 81.557 114.413 80.385 115.956C79.212 117.501 77.614 118.272 75.592 118.272C73.592 118.272 72.022 117.545 70.884 116.092H70.564L69.788 117.967H66.237V94.26H70.884V99.776C70.884 100.477 70.822 101.599 70.7 103.144H70.884C71.97 101.458 73.581 100.613 75.713 100.613ZM74.22 104.332C73.073 104.332 72.235 104.685 71.707 105.391C71.179 106.098 70.904 107.263 70.884 108.889V109.391C70.884 111.22 71.155 112.53 71.698 113.323C72.242 114.115 73.103 114.511 74.281 114.511C75.236 114.511 75.994 114.071 76.559 113.193C77.123 112.315 77.405 111.037 77.405 109.361C77.405 107.685 77.119 106.427 76.551 105.589C75.983 104.751 75.206 104.332 74.22 104.332ZM83.241 100.934H88.329L91.544 110.518C91.819 111.351 92.007 112.336 92.108 113.474H92.2C92.311 112.428 92.529 111.442 92.854 110.518L96.008 100.934H100.991L93.784 120.148C93.123 121.925 92.182 123.256 90.958 124.14C89.733 125.024 88.304 125.465 86.668 125.465C85.865 125.465 85.078 125.379 84.307 125.206V121.519C84.9067 121.655 85.5201 121.721 86.135 121.716C86.957 121.716 87.676 121.465 88.291 120.962C88.906 120.46 89.386 119.701 89.731 118.685L90.005 117.846L83.241 100.934Z" fill="#F2F2F2"/>
<path d="M87.524 58.7671L38.638 87.7951L101.938 83.5011L106.813 19.6731L87.524 58.7671Z" fill="url(#paint0_linear_1_40)"/>
<path d="M102.041 83.457L96.6 45.905L81.782 65.475L102.041 83.457Z" fill="url(#paint1_linear_1_40)"/>
<path d="M102.114 83.4571L62.256 80.3281L38.851 87.7131L102.114 83.4571Z" fill="url(#paint2_linear_1_40)"/>
<path d="M38.906 87.722L48.863 55.1021L26.953 59.788L38.906 87.722Z" fill="url(#paint3_linear_1_40)"/>
<path d="M81.777 65.5821L72.615 29.6951L46.396 54.2721L81.777 65.5821Z" fill="url(#paint4_linear_1_40)"/>
<path d="M104.734 30.201L79.949 9.95801L73.048 32.271L104.734 30.201Z" fill="url(#paint5_linear_1_40)"/>
<path d="M93.142 2.74106L78.566 10.7971L69.369 2.63306L93.142 2.74106Z" fill="url(#paint6_linear_1_40)"/>
<path d="M21.188 70.7299L27.295 59.5929L22.354 46.3259L21.188 70.7299Z" fill="url(#paint7_linear_1_40)"/>
<path d="M22.026 45.905L26.996 60.003L48.591 55.158L73.246 32.245L80.204 10.145L69.249 2.40796L50.622 9.37896C44.754 14.837 33.366 25.637 32.955 25.84C32.549 26.048 25.436 39.493 22.026 45.905Z" fill="white"/>
<path d="M39.477 20.581C52.196 7.96998 68.592 0.519984 74.884 6.86898C81.173 13.217 74.504 28.645 61.785 41.251C49.067 53.858 32.873 61.719 26.586 55.37C20.292 49.026 26.759 33.187 39.477 20.581Z" fill="url(#paint8_linear_1_40)"/>
<path d="M38.906 87.7091L48.785 54.9851L81.596 65.5261C69.732 76.6511 56.538 86.0541 38.906 87.7091Z" fill="url(#paint9_linear_1_40)"/>
<path d="M73.289 32.1811L81.712 65.5441C91.622 55.1251 100.516 43.9231 104.871 30.0681L73.289 32.1811Z" fill="url(#paint10_linear_1_40)"/>
<path d="M104.785 30.236C108.156 20.062 108.933 5.46803 93.039 2.75903L79.996 9.96303L104.785 30.236Z" fill="url(#paint11_linear_1_40)"/>
<path d="M21.188 70.5831C21.655 87.3721 33.769 87.6231 38.929 87.7711L27.009 59.9341L21.188 70.5831Z" fill="#9E1209"/>
<path d="M73.337 32.232C80.952 36.912 96.297 46.312 96.608 46.485C97.092 46.757 103.225 36.143 104.616 30.145L73.337 32.232Z" fill="url(#paint12_radial_1_40)"/>
<path d="M48.772 54.9861L61.979 80.4661C69.789 76.2311 75.903 71.0711 81.505 65.5441L48.772 54.9861Z" fill="url(#paint13_radial_1_40)"/>
<path d="M26.957 59.969L25.085 82.251C28.617 87.074 33.474 87.492 38.57 87.117C34.883 77.942 27.519 59.596 26.957 59.969Z" fill="url(#paint14_linear_1_40)"/>
<path d="M79.919 10.0199L106.156 13.7029C104.755 7.76794 100.455 3.93994 93.126 2.74194L79.919 10.0199Z" fill="url(#paint15_linear_1_40)"/>
<defs>
<linearGradient id="paint0_linear_1_40" x1="96.417" y1="95.5611" x2="78.354" y2="63.6691" gradientUnits="userSpaceOnUse">
<stop stop-color="#FB7655"/>
<stop offset="0.41" stop-color="#E42B1E"/>
<stop offset="0.99" stop-color="#990000"/>
<stop offset="1" stop-color="#990000"/>
</linearGradient>
<linearGradient id="paint1_linear_1_40" x1="105.413" y1="68.771" x2="82.134" y2="53.15" gradientUnits="userSpaceOnUse">
<stop stop-color="#871101"/>
<stop offset="0.99" stop-color="#911209"/>
<stop offset="1" stop-color="#911209"/>
</linearGradient>
<linearGradient id="paint2_linear_1_40" x1="86.787" y1="96.5281" x2="63.508" y2="80.9071" gradientUnits="userSpaceOnUse">
<stop stop-color="#871101"/>
<stop offset="0.99" stop-color="#911209"/>
<stop offset="1" stop-color="#911209"/>
</linearGradient>
<linearGradient id="paint3_linear_1_40" x1="37.911" y1="57.4601" x2="41.52" y2="80.9141" gradientUnits="userSpaceOnUse">
<stop stop-color="white"/>
<stop offset="0.23" stop-color="#E57252"/>
<stop offset="0.46" stop-color="#DE3B20"/>
<stop offset="0.99" stop-color="#A60003"/>
<stop offset="1" stop-color="#A60003"/>
</linearGradient>
<linearGradient id="paint4_linear_1_40" x1="62.733" y1="35.5611" x2="64.063" y2="59.4981" gradientUnits="userSpaceOnUse">
<stop stop-color="white"/>
<stop offset="0.23" stop-color="#E4714E"/>
<stop offset="0.56" stop-color="#BE1A0D"/>
<stop offset="0.99" stop-color="#A80D00"/>
<stop offset="1" stop-color="#A80D00"/>
</linearGradient>
<linearGradient id="paint5_linear_1_40" x1="84.761" y1="13.437" x2="88.742" y2="30.593" gradientUnits="userSpaceOnUse">
<stop stop-color="white"/>
<stop offset="0.18" stop-color="#E46342"/>
<stop offset="0.4" stop-color="#C82410"/>
<stop offset="0.99" stop-color="#A80D00"/>
<stop offset="1" stop-color="#A80D00"/>
</linearGradient>
<linearGradient id="paint6_linear_1_40" x1="72.605" y1="7.39606" x2="89.758" y2="-1.17994" gradientUnits="userSpaceOnUse">
<stop stop-color="white"/>
<stop offset="0.54" stop-color="#C81F11"/>
<stop offset="0.99" stop-color="#BF0905"/>
<stop offset="1" stop-color="#BF0905"/>
</linearGradient>
<linearGradient id="paint7_linear_1_40" x1="22.875" y1="51.4819" x2="24.287" y2="65.6179" gradientUnits="userSpaceOnUse">
<stop stop-color="white"/>
<stop offset="0.31" stop-color="#DE4024"/>
<stop offset="0.99" stop-color="#BF190B"/>
<stop offset="1" stop-color="#BF190B"/>
</linearGradient>
<linearGradient id="paint8_linear_1_40" x1="13.169" y1="69.437" x2="79.536" y2="1.19398" gradientUnits="userSpaceOnUse">
<stop stop-color="#BD0012"/>
<stop offset="0.07" stop-color="white"/>
<stop offset="0.17" stop-color="white"/>
<stop offset="0.27" stop-color="#C82F1C"/>
<stop offset="0.33" stop-color="#820C01"/>
<stop offset="0.46" stop-color="#A31601"/>
<stop offset="0.72" stop-color="#B31301"/>
<stop offset="0.99" stop-color="#E82609"/>
<stop offset="1" stop-color="#E82609"/>
</linearGradient>
<linearGradient id="paint9_linear_1_40" x1="64.005" y1="76.3231" x2="44.014" y2="71.3891" gradientUnits="userSpaceOnUse">
<stop stop-color="#8C0C01"/>
<stop offset="0.54" stop-color="#990C00"/>
<stop offset="0.99" stop-color="#A80D0E"/>
<stop offset="1" stop-color="#A80D0E"/>
</linearGradient>
<linearGradient id="paint10_linear_1_40" x1="98.339" y1="52.3301" x2="80.58" y2="36.4141" gradientUnits="userSpaceOnUse">
<stop stop-color="#7E110B"/>
<stop offset="0.99" stop-color="#9E0C00"/>
<stop offset="1" stop-color="#9E0C00"/>
</linearGradient>
<linearGradient id="paint11_linear_1_40" x1="104.864" y1="23.126" x2="96.018" y2="13.669" gradientUnits="userSpaceOnUse">
<stop stop-color="#79130D"/>
<stop offset="0.99" stop-color="#9E120B"/>
<stop offset="1" stop-color="#9E120B"/>
</linearGradient>
<radialGradient id="paint12_radial_1_40" cx="0" cy="0" r="1" gradientUnits="userSpaceOnUse" gradientTransform="translate(83.347 36.719) scale(21.762 21.762)">
<stop stop-color="#A80D00"/>
<stop offset="0.99" stop-color="#7E0E08"/>
<stop offset="1" stop-color="#7E0E08"/>
</radialGradient>
<radialGradient id="paint13_radial_1_40" cx="0" cy="0" r="1" gradientUnits="userSpaceOnUse" gradientTransform="translate(53.207 65.3981) scale(28.932 28.932)">
<stop stop-color="#A30C00"/>
<stop offset="0.99" stop-color="#800E08"/>
<stop offset="1" stop-color="#800E08"/>
</radialGradient>
<linearGradient id="paint14_linear_1_40" x1="32.714" y1="87.691" x2="25.505" y2="63.234" gradientUnits="userSpaceOnUse">
<stop stop-color="#8B2114"/>
<stop offset="0.43" stop-color="#9E100A"/>
<stop offset="0.99" stop-color="#B3100C"/>
<stop offset="1" stop-color="#B3100C"/>
</linearGradient>
<linearGradient id="paint15_linear_1_40" x1="88.018" y1="6.64394" x2="104.18" y2="13.7779" gradientUnits="userSpaceOnUse">
<stop stop-color="#B31000"/>
<stop offset="0.44" stop-color="#910F08"/>
<stop offset="0.99" stop-color="#791C12"/>
<stop offset="1" stop-color="#791C12"/>
</linearGradient>
</defs>
</svg>
